<?xml version="1.0" encoding="UTF-8"?>
<svg xmlns="http://www.w3.org/2000/svg" xmlns:xlink="http://www.w3.org/1999/xlink" width="24px" height="24px" viewBox="0 0 24 24" version="1.1">
<g id="surface1">
<path style=" stroke:none;fill-rule:nonzero;fill:rgb(23.137255%,34.901961%,59.607843%);fill-opacity:1;" d="M 12 0 C 18.628906 0 24 5.371094 24 12 C 24 18.628906 18.628906 24 12 24 C 5.371094 24 0 18.628906 0 12 C 0 5.371094 5.371094 0 12 0 Z M 12 0 "/>
<path style=" stroke:none;fill-rule:nonzero;fill:rgb(100%,100%,100%);fill-opacity:1;" d="M 13.460938 8.261719 L 15.007812 8.261719 L 15.007812 5.976562 L 13.191406 5.976562 L 13.191406 5.984375 C 10.988281 6.0625 10.535156 7.300781 10.496094 8.601562 L 10.492188 8.601562 L 10.492188 9.742188 L 8.992188 9.742188 L 8.992188 11.980469 L 10.492188 11.980469 L 10.492188 17.976562 L 12.75 17.976562 L 12.75 11.980469 L 14.601562 11.980469 L 14.960938 9.742188 L 12.753906 9.742188 L 12.753906 9.054688 C 12.753906 8.613281 13.042969 8.261719 13.460938 8.261719 Z M 13.460938 8.261719 "/>
</g>
</svg>
